<?xml version="1.0" encoding="utf-8"?>
<!-- Generator: Adobe Illustrator 28.3.0, SVG Export Plug-In . SVG Version: 6.00 Build 0)  -->
<svg version="1.1" id="Layer_1" xmlns="http://www.w3.org/2000/svg" xmlns:xlink="http://www.w3.org/1999/xlink" x="0px" y="0px"
	 viewBox="0 0 619.7 191.6" style="enable-background:new 0 0 619.7 191.6;" xml:space="preserve">
<style type="text/css">
	.st0{fill:#22C55E;}
	.st1{fill:#374151;}
</style>
<g transform="translate(0.000000,249.000000) scale(0.100000,-0.100000)">
	<path class="st0" d="M3017.3,2477.5c-4.2-6.9,2.8-44.3,15.2-83.1c12.5-38.8,19.4-74.8,15.2-79c-4.2-4.2-31.9,2.8-60.9,15.2
		c-66.5,29.1-225.8,76.2-254.9,76.2c-127.4-1.4,5.5-189.8,198.1-282.6c56.8-27.7,109.4-49.9,116.4-49.9c8.3,0,34.6-18,58.2-40.2
		c33.2-30.5,42.9-52.6,42.9-91.4c0-106.7-49.9-133-119.1-60.9c-56.8,59.6-189.8,130.2-293.7,156.5
		c-181.5,45.7-437.7,19.4-609.5-63.7c-189.8-90-285.3-246.6-303.3-491.7c-5.5-83.1-13.9-115-26.3-115c-11.1,0-33.2-13.9-48.5-29.1
		c-24.9-24.9-34.6-27.7-55.4-15.2c-22.2,13.9-29.1,11.1-47.1-24.9c-11.1-22.2-20.8-51.3-20.8-65.1c0-54,44.3-137.1,90-169
		c48.5-31.9,85.9-34.6,209.2-8.3c38.8,8.3,45.7,4.2,72-38.8c15.2-27.7,47.1-59.6,70.6-72c37.4-18,42.9-29.1,42.9-77.6
		c0-30.5,5.5-66.5,13.9-80.3c16.6-33.2,123.3-67.9,242.4-77.6c138.5-12.5,155.1-16.6,163.4-47.1c8.3-33.2,72-66.5,148.2-79l58.2-9.7
		l-9.7,44.3c-8.3,36-2.8,51.3,20.8,77.6c34.6,36,27.7,58.2-22.2,76.2c-48.5,19.4-40.2,56.8,26.3,119.1
		c85.9,83.1,124.7,102.5,200.8,102.5c264.6,0,562.4,250.7,563.8,472.3c0,45.7-8.3,87.3-19.4,101.1c-9.7,11.1-15.2,30.5-11.1,41.6
		c8.3,22.2,91.4,49.9,145.4,49.9c56.8,0,119.1,40.2,152.4,97c16.6,29.1,30.5,62.3,30.5,73.4c0,9.7-49.9,66.5-110.8,124.7
		c-99.7,95.6-116.4,106.7-164.8,106.7c-70.6,0-124.7,20.8-135.7,51.3c-12.5,30.5-77.6,131.6-131.6,200.8
		c-44.3,56.8-198.1,177.3-225.8,177.3C3032.6,2490,3021.5,2484.4,3017.3,2477.5z M2578.2,1055c36-47.1,36-55.4-4.2-95.6
		c-18-16.6-45.7-54-62.3-81.7c-18-27.7-37.4-49.9-44.3-49.9c-29.1,0-95.6,42.9-110.8,70.6C2294.3,1014.8,2497.9,1157.5,2578.2,1055z
		"/>
	<path class="st1" d="M261.4,1912.9c-73-23-111-62-128-131c-11-42-24-55-57-55c-64,0-82-73-19-81c23-4,25-8,22-46
		c-1-23-14-86-28-140c-15-54-30-114-34-134c-3-19-10-41-14-48c-18-28,39-54,72-32c17,11,55,146,93,331c12,57,30,70,96,70
		c45,0,55,4,69,25c26,40,13,55-50,55c-30,0-57,4-60,9c-14,23,8,72,41,92c31,20,38,20,74,9c45-15,69-3,69,36
		C407.4,1913.9,330.4,1934.9,261.4,1912.9z"/>
	<path class="st1" d="M2968.4,1911.9c-67-21-119-81-135-157c-6-25-11-28-45-28c-41,0-51-11-51-56c0-19,5-24,25-24c33,0,40-20,26-78
		c-36-141-44-171-57-218c-27-96-13-128,44-108c23,8,29,22,55,124c15,63,32,133,36,155c5,22,15,58,22,80l14,40l60,3c69,4,85,14,85,53
		c0,29-1,29-60,29c-57,0-60,1-60,24c0,38,10,54,47,77c32,20,38,21,75,8c37-12,42-11,54,6c8,10,14,27,14,37
		C3117.4,1914.9,3035.4,1933.9,2968.4,1911.9z"/>
	<path class="st1" d="M4711.4,1881.9c-7-19-14-42-14-51s-9-47-21-84l-20-68l-42,24c-85,49-228,27-307-47c-126-118-148-301-46-382
		c39-31,44-32,131-32c71,0,96,4,118,19c27,19,28,19,48-3c22-23,61-28,77-8c10,12,46,131,62,207c4,19,13,55,19,80
		c60,233,90,363,86,371c-4,5-22,9-41,9C4731.4,1916.9,4724.4,1912.9,4711.4,1881.9z M4585.4,1612.9c24-23,27-34,26-89
		c-2-91-47-156-137-195c-87-38-187,16-187,100c1,79,75,187,143,208C4486.4,1653.9,4555.4,1642.9,4585.4,1612.9z"/>
	<path class="st1" d="M4967.4,1903.9c-18-9-26-22-28-46c-4-37,9-51,46-51c50,0,84,77,43,100
		C5003.4,1919.9,4998.4,1919.9,4967.4,1903.9z"/>
	<path class="st1" d="M1389.4,1814.9c-6-7-14-29-19-48c-8-31-13-36-49-40c-37-5-39-7-42-42s-1-38,23-38c35,0,41-22,22-83
		c-55-183-62-257-27-295c39-41,168-42,203-1c21,26,21,33,1,54c-10,10-23,13-33,9c-34-15-83-17-92-3c-13,21-11,65,5,118
		c27,85,46,158,46,173c0,21,21,28,86,28c48,0,56,3,66,24c19,43,5,56-57,56c-61,0-72,10-56,52c7,18,6,29-2,37
		C1449.4,1830.9,1402.4,1829.9,1389.4,1814.9z"/>
	<path class="st1" d="M441.4,1708.9c-22-9-53-26-68-37l-27-21l21-27l21-27l37,19c72,36,173,39,207,4c18-18,20-67,3-80
		c-7-6-63-13-125-16c-97-5-116-9-152-32c-94-59-117-176-45-229c33-24,128-32,194-16c42,10,56,10,76-1c40-21,77-2,87,46
		c10,49,34,143,53,209c29,100,12,175-46,210C638.4,1732.9,497.4,1731.9,441.4,1708.9z M605.4,1443.9c22-26-27-92-90-120
		c-73-34-148-13-148,42c0,59,54,91,156,91C570.4,1456.9,598.4,1451.9,605.4,1443.9z"/>
	<path class="st1" d="M942.4,1705.9c-60-32-84-58-99-109c-26-88,5-121,142-157c113-29,129-55,63-100c-47-32-128-31-196,2l-49,24
		l-23-21c-33-31-29-53,15-80c33-20,49-23,147-23c106,0,112,1,155,30c75,51,109,134,75,182c-18,26-96,63-134,63c-42,1-111,36-111,58
		c0,31,37,60,85,68c51,7,122-1,142-17c27-23,82,22,69,57C1205.4,1728.9,1015.4,1744.9,942.4,1705.9z"/>
	<path class="st1" d="M1768.4,1704.9c-72-33-144-112-169-188c-12-35-22-80-22-99c1-53,31-112,76-146c37-29,43-30,139-30
		c97,1,102,2,153,35c28,19,52,40,52,46s-9,19-20,29c-20,18-22,18-66-4c-92-47-187-36-224,24c-48,77-24,87,191,84c107-2,173,1,179,7
		s13,34,17,62c8,72-17,134-70,173c-36,26-47,29-116,28C1834.4,1725.9,1799.4,1718.9,1768.4,1704.9z M1931.4,1636.9
		c27-10,56-56,56-88c0-26-25-32-140-32c-113,0-140,6-140,30c0,22,73,87,104,93C1852.4,1647.9,1906.4,1646.9,1931.4,1636.9z"/>
	<path class="st1" d="M2229.4,1709.9c-6-10-13-34-17-53c-3-19-13-57-20-85c-8-27-21-78-29-112c-9-35-23-89-32-121
		c-21-77-17-96,22-100s47,7,68,93c50,203,70,247,129,284c19,11,50,21,69,21c41,0,55,13,60,55c3,29,1,30-39,33c-24,2-55-4-73-13
		c-27-14-33-14-52,0C2285.4,1731.9,2240.4,1730.9,2229.4,1709.9z"/>
	<path class="st1" d="M3112.4,1714.9c-10-27-58-215-67-263c-23-116,6-184,86-206c47-13,156-6,184,12c16,10,24,9,43-4
		c49-35,89-12,104,58c3,17,13,57,21,90c9,33,22,83,29,110c7,28,18,73,25,100c7,28,14,64,14,80c1,28-1,30-38,30c-38,0-38,0-57-60
		c-10-33-19-69-19-80c0-36-40-149-66-188c-42-64-141-95-203-62c-45,23-49,66-16,190c34,126,46,185,40,194
		C3183.4,1730.9,3117.4,1729.9,3112.4,1714.9z"/>
	<path class="st1" d="M3714.4,1719.9c-5-8-19-62-53-198c-9-33-21-82-29-110c-27-100-37-154-30-165c3-5,19-10,35-10c36,0,55,26,68,95
		c16,80,43,178,59,210c50,98,192,137,251,70c26-31,27-41,8-109c-8-28-22-80-31-116s-21-80-27-99c-11-37-1-51,39-51c30,0,51,24,59,68
		c6,38,26,112,50,191c31,99,9,179-58,215c-39,21-162,18-216-5c-30-13-34-12-43,4C3786.4,1726.9,3723.4,1734.9,3714.4,1719.9z"/>
	<path class="st1" d="M4913.4,1714.9c-2-7-11-35-19-63c-9-27-23-79-32-115s-23-88-31-116s-14-59-14-70c-1-10-7-36-14-56
		c-15-43-6-58,35-58s43,4,85,173c29,116,46,183,61,238c9,31,12,62,9,68C4983.4,1730.9,4917.4,1729.9,4913.4,1714.9z"/>
	<path class="st1" d="M5148.4,1704.9c-21-56-43-140-81-303c-11-49-25-100-30-112c-15-35-2-53,37-53c41,0,50,17,83,160
		c29,126,46,164,91,205c65,58,184,58,211,0c12-27,5-84-27-200c-41-153-40-164,11-165c30,0,51,28,62,85c5,28,22,96,37,153
		c33,124,29,156-24,212l-38,40h-79c-51,0-89-6-108-15c-36-19-52-19-60,0c-3,9-19,15-41,15
		C5164.4,1726.9,5155.4,1721.9,5148.4,1704.9z"/>
	<path class="st1" d="M5823.4,1706.9c-113-52-185-159-186-273c0-140,140-214,303-158c54,19,57,19,57,2c0-24-38-79-73-105
		c-24-18-43-21-115-21c-77,0-92,4-129,27l-41,27l-26-24c-32-29-32-36-3-62c44-40,91-53,185-53c161,0,248,61,295,205
		c18,55,65,237,77,300c5,22,13,53,19,68c6,16,11,42,11,58c0,26-3,29-35,29c-26,0-39-6-51-25l-16-24l-36,24c-32,22-47,25-117,24
		C5887.4,1725.9,5850.4,1719.9,5823.4,1706.9z M6027.4,1621.9c34-31,44-70,30-123c-18-64-54-109-111-138c-105-53-217-8-219,88
		c-1,70,85,180,149,192C5924.4,1648.9,6009.4,1638.9,6027.4,1621.9z"/>
</g>
</svg>
