<?xml version="1.0" standalone="no"?>
<!DOCTYPE svg PUBLIC "-//W3C//DTD SVG 20010904//EN"
 "http://www.w3.org/TR/2001/REC-SVG-20010904/DTD/svg10.dtd">
<svg version="1.0" xmlns="http://www.w3.org/2000/svg"
 width="900.000000pt" height="249.000000pt" viewBox="0 0 900.000000 249.000000"
 preserveAspectRatio="xMidYMid meet">
<metadata>
Created by potrace 1.10, written by Peter Selinger 2001-2011
</metadata>
<g transform="translate(0.000000,249.000000) scale(0.100000,-0.100000)"
fill="#008940" stroke="none">
<path d="M1426 1901 c-3 -5 2 -32 11 -60 9 -28 14 -54 11 -57 -3 -3 -23 2 -44
11 -48 21 -163 55 -184 55 -92 -1 4 -137 143 -204 41 -20 79 -36 84 -36 6 0
25 -13 42 -29 24 -22 31 -38 31 -66 0 -77 -36 -96 -86 -44 -41 43 -137 94
-212 113 -131 33 -316 14 -440 -46 -137 -65 -206 -178 -219 -355 -4 -60 -10
-83 -19 -83 -8 0 -24 -10 -35 -21 -18 -18 -25 -20 -40 -11 -16 10 -21 8 -34
-18 -8 -16 -15 -37 -15 -47 0 -39 32 -99 65 -122 35 -23 62 -25 151 -6 28 6
33 3 52 -28 11 -20 34 -43 51 -52 27 -13 31 -21 31 -56 0 -22 4 -48 10 -58 12
-24 89 -49 175 -56 100 -9 112 -12 118 -34 6 -24 52 -48 107 -57 l42 -7 -7 32
c-6 26 -2 37 15 56 25 26 20 42 -16 55 -35 14 -29 41 19 86 62 60 90 74 145
74 191 0 406 181 407 341 0 33 -6 63 -14 73 -7 8 -11 22 -8 30 6 16 66 36 105
36 41 0 86 29 110 70 12 21 22 45 22 53 0 7 -36 48 -80 90 -72 69 -84 77 -119
77 -51 0 -90 15 -98 37 -9 22 -56 95 -95 145 -32 41 -143 128 -163 128 -8 0
-16 -4 -19 -9z m-317 -1027 c26 -34 26 -40 -3 -69 -13 -12 -33 -39 -45 -59
-13 -20 -27 -36 -32 -36 -21 0 -69 31 -80 51 -45 84 102 187 160 113z"/>
<path d="M2484 1616 c-73 -23 -111 -62 -128 -131 -11 -42 -24 -55 -57 -55 -64
0 -82 -73 -19 -81 23 -4 25 -8 22 -46 -1 -23 -14 -86 -28 -140 -15 -54 -30
-114 -34 -134 -3 -19 -10 -41 -14 -48 -18 -28 39 -54 72 -32 17 11 55 146 93
331 12 57 30 70 96 70 45 0 55 4 69 25 26 40 13 55 -50 55 -30 0 -57 4 -60 9
-14 23 8 72 41 92 31 20 38 20 74 9 45 -15 69 -3 69 36 0 41 -77 62 -146 40z"/>
<path d="M5191 1615 c-67 -21 -119 -81 -135 -157 -6 -25 -11 -28 -45 -28 -41
0 -51 -11 -51 -56 0 -19 5 -24 25 -24 33 0 40 -20 26 -78 -36 -141 -44 -171
-57 -218 -27 -96 -13 -128 44 -108 23 8 29 22 55 124 15 63 32 133 36 155 5
22 15 58 22 80 l14 40 60 3 c69 4 85 14 85 53 0 29 -1 29 -60 29 -57 0 -60 1
-60 24 0 38 10 54 47 77 32 20 38 21 75 8 37 -12 42 -11 54 6 8 10 14 27 14
37 0 36 -82 55 -149 33z"/>
<path d="M6934 1585 c-7 -19 -14 -42 -14 -51 0 -9 -9 -47 -21 -84 l-20 -68
-42 24 c-85 49 -228 27 -307 -47 -126 -118 -148 -301 -46 -382 39 -31 44 -32
131 -32 71 0 96 4 118 19 27 19 28 19 48 -3 22 -23 61 -28 77 -8 10 12 46 131
62 207 4 19 13 55 19 80 60 233 90 363 86 371 -4 5 -22 9 -41 9 -30 0 -37 -4
-50 -35z m-126 -269 c24 -23 27 -34 26 -89 -2 -91 -47 -156 -137 -195 -87 -38
-187 16 -187 100 1 79 75 187 143 208 56 17 125 6 155 -24z"/>
<path d="M7190 1607 c-18 -9 -26 -22 -28 -46 -4 -37 9 -51 46 -51 50 0 84 77
43 100 -25 13 -30 13 -61 -3z"/>
<path d="M3612 1518 c-6 -7 -14 -29 -19 -48 -8 -31 -13 -36 -49 -40 -37 -5
-39 -7 -42 -42 -3 -35 -1 -38 23 -38 35 0 41 -22 22 -83 -55 -183 -62 -257
-27 -295 39 -41 168 -42 203 -1 21 26 21 33 1 54 -10 10 -23 13 -33 9 -34 -15
-83 -17 -92 -3 -13 21 -11 65 5 118 27 85 46 158 46 173 0 21 21 28 86 28 48
0 56 3 66 24 19 43 5 56 -57 56 -61 0 -72 10 -56 52 7 18 6 29 -2 37 -15 15
-62 14 -75 -1z"/>
<path d="M2664 1412 c-22 -9 -53 -26 -68 -37 l-27 -21 21 -27 21 -27 37 19
c72 36 173 39 207 4 18 -18 20 -67 3 -80 -7 -6 -63 -13 -125 -16 -97 -5 -116
-9 -152 -32 -94 -59 -117 -176 -45 -229 33 -24 128 -32 194 -16 42 10 56 10
76 -1 40 -21 77 -2 87 46 10 49 34 143 53 209 29 100 12 175 -46 210 -39 22
-180 21 -236 -2z m164 -265 c22 -26 -27 -92 -90 -120 -73 -34 -148 -13 -148
42 0 59 54 91 156 91 47 0 75 -5 82 -13z"/>
<path d="M3165 1409 c-60 -32 -84 -58 -99 -109 -26 -88 5 -121 142 -157 113
-29 129 -55 63 -100 -47 -32 -128 -31 -196 2 l-49 24 -23 -21 c-33 -31 -29
-53 15 -80 33 -20 49 -23 147 -23 106 0 112 1 155 30 75 51 109 134 75 182
-18 26 -96 63 -134 63 -42 1 -111 36 -111 58 0 31 37 60 85 68 51 7 122 -1
142 -17 27 -23 82 22 69 57 -18 46 -208 62 -281 23z"/>
<path d="M3991 1408 c-72 -33 -144 -112 -169 -188 -12 -35 -22 -80 -22 -99 1
-53 31 -112 76 -146 37 -29 43 -30 139 -30 97 1 102 2 153 35 28 19 52 40 52
46 0 6 -9 19 -20 29 -20 18 -22 18 -66 -4 -92 -47 -187 -36 -224 24 -48 77
-24 87 191 84 107 -2 173 1 179 7 6 6 13 34 17 62 8 72 -17 134 -70 173 -36
26 -47 29 -116 28 -54 0 -89 -7 -120 -21z m163 -68 c27 -10 56 -56 56 -88 0
-26 -25 -32 -140 -32 -113 0 -140 6 -140 30 0 22 73 87 104 93 41 8 95 7 120
-3z"/>
<path d="M4452 1413 c-6 -10 -13 -34 -17 -53 -3 -19 -13 -57 -20 -85 -8 -27
-21 -78 -29 -112 -9 -35 -23 -89 -32 -121 -21 -77 -17 -96 22 -100 39 -4 47 7
68 93 50 203 70 247 129 284 19 11 50 21 69 21 41 0 55 13 60 55 3 29 1 30
-39 33 -24 2 -55 -4 -73 -13 -27 -14 -33 -14 -52 0 -30 20 -75 19 -86 -2z"/>
<path d="M5335 1418 c-10 -27 -58 -215 -67 -263 -23 -116 6 -184 86 -206 47
-13 156 -6 184 12 16 10 24 9 43 -4 49 -35 89 -12 104 58 3 17 13 57 21 90 9
33 22 83 29 110 7 28 18 73 25 100 7 28 14 64 14 80 1 28 -1 30 -38 30 -38 0
-38 0 -57 -60 -10 -33 -19 -69 -19 -80 0 -36 -40 -149 -66 -188 -42 -64 -141
-95 -203 -62 -45 23 -49 66 -16 190 34 126 46 185 40 194 -9 15 -75 14 -80 -1z"/>
<path d="M5937 1423 c-5 -8 -19 -62 -53 -198 -9 -33 -21 -82 -29 -110 -27
-100 -37 -154 -30 -165 3 -5 19 -10 35 -10 36 0 55 26 68 95 16 80 43 178 59
210 50 98 192 137 251 70 26 -31 27 -41 8 -109 -8 -28 -22 -80 -31 -116 -9
-36 -21 -80 -27 -99 -11 -37 -1 -51 39 -51 30 0 51 24 59 68 6 38 26 112 50
191 31 99 9 179 -58 215 -39 21 -162 18 -216 -5 -30 -13 -34 -12 -43 4 -10 17
-73 25 -82 10z"/>
<path d="M7136 1418 c-2 -7 -11 -35 -19 -63 -9 -27 -23 -79 -32 -115 -9 -36
-23 -88 -31 -116 -8 -28 -14 -59 -14 -70 -1 -10 -7 -36 -14 -56 -15 -43 -6
-58 35 -58 41 0 43 4 85 173 29 116 46 183 61 238 9 31 12 62 9 68 -10 15 -76
14 -80 -1z"/>
<path d="M7371 1408 c-21 -56 -43 -140 -81 -303 -11 -49 -25 -100 -30 -112
-15 -35 -2 -53 37 -53 41 0 50 17 83 160 29 126 46 164 91 205 65 58 184 58
211 0 12 -27 5 -84 -27 -200 -41 -153 -40 -164 11 -165 30 0 51 28 62 85 5 28
22 96 37 153 33 124 29 156 -24 212 l-38 40 -79 0 c-51 0 -89 -6 -108 -15 -36
-19 -52 -19 -60 0 -3 9 -19 15 -41 15 -28 0 -37 -5 -44 -22z"/>
<path d="M8046 1410 c-113 -52 -185 -159 -186 -273 0 -140 140 -214 303 -158
54 19 57 19 57 2 0 -24 -38 -79 -73 -105 -24 -18 -43 -21 -115 -21 -77 0 -92
4 -129 27 l-41 27 -26 -24 c-32 -29 -32 -36 -3 -62 44 -40 91 -53 185 -53 161
0 248 61 295 205 18 55 65 237 77 300 5 22 13 53 19 68 6 16 11 42 11 58 0 26
-3 29 -35 29 -26 0 -39 -6 -51 -25 l-16 -24 -36 24 c-32 22 -47 25 -117 24
-55 0 -92 -6 -119 -19z m204 -85 c34 -31 44 -70 30 -123 -18 -64 -54 -109
-111 -138 -105 -53 -217 -8 -219 88 -1 70 85 180 149 192 48 8 133 -2 151 -19z"/>
</g>
</svg>
